<?xml version="1.0" standalone="no"?>
<!DOCTYPE svg PUBLIC "-//W3C//DTD SVG 1.1//EN" "http://www.w3.org/Graphics/SVG/1.1/DTD/svg11.dtd" >
<!--
2013-9-30: Created.
-->
<svg>
<metadata>
Created by iconfont
</metadata>
<defs>

<font id="iconfont" horiz-adv-x="1024" >
  <font-face
    font-family="iconfont"
    font-weight="500"
    font-stretch="normal"
    units-per-em="1024"
    ascent="896"
    descent="-128"
  />
    <missing-glyph />
    
    <glyph glyph-name="huiyuanqia" unicode="&#59526;" d="M128 42.666667c0-0.064 768.064 0 768.064 0L896 725.333333c0 0.064-768.064 0-768.064 0L128 42.666667zM127.936 768h768.128C919.594667 768 938.666667 749.013333 938.666667 725.333333v-682.666666c0-23.573333-19.029333-42.666667-42.602667-42.666667H127.936A42.56 42.56 0 0 0 85.333333 42.666667V725.333333c0 23.573333 19.029333 42.666667 42.602667 42.666667zM85.333333 512h853.333334v-42.666667H85.333333v42.666667z m256-277.333333v-42.666667H170.666667v42.666667h170.666666z m256-91.946667l41.621334 128a21.333333 21.333333 0 0 1-40.576 13.226667l-21.632-67.690667-23.232 67.968a21.333333 21.333333 0 0 1-40.362667-13.781333l43.733333-128c6.613333-19.413333 34.133333-19.2 40.469334 0.298666z m85.333334-14.72a21.333333 21.333333 0 0 1 21.333333 21.333333v128a21.333333 21.333333 0 0 1-42.666667 0v-128a21.333333 21.333333 0 0 1 21.333334-21.333333z m85.333333 21.333333a21.333333 21.333333 0 0 0-42.666667 0v128a21.333333 21.333333 0 0 0 36.416 15.104A64 64 0 1 0 768 174.293333V149.333333z m21.333333 106.666667a21.333333 21.333333 0 1 1 0-42.666667 21.333333 21.333333 0 0 1 0 42.666667z"  horiz-adv-x="1024" />

    
    <glyph glyph-name="time_icon" unicode="&#58981;" d="M512 884c-275.69 0-500-224.3-500-500s224.31-500 500-500 500 224.3 500 500-224.31 500-500 500zM512-60.44c-245.060 0-444.44 199.38-444.44 444.44s199.38 444.44 444.44 444.44 444.44-199.38 444.44-444.44-199.38-444.44-444.44-444.44zM762 411.78h-222.22v250c0 15.342-12.438 27.78-27.78 27.78s-27.78-12.438-27.78-27.78l-0-277.78c-0-0.003-0-0.006-0-0.010 0-15.337 12.433-27.77 27.77-27.77 0.004 0 0.007 0 0.011 0l249.999-0c15.342 0 27.78 12.438 27.78 27.78s-12.438 27.78-27.78 27.78z"  horiz-adv-x="1024" />

    
    <glyph glyph-name="zuojiantou" unicode="&#58933;" d="M721.9968-83.0208l47.0528 47.104-419.94752 419.98848 419.94752 419.90144-47.05792 47.04768-419.93216-419.89632h-0.00512l-47.104-47.09888 47.04768-47.04256z"  horiz-adv-x="1024" />

    
    <glyph glyph-name="dizhi" unicode="&#58893;" d="M511.46178219-31.93044186999998C483.50183562-31.93044186999998 189.70801438 298.54085437000003 189.70801438 476.23475719 189.70801438 653.92409906 333.74963469 797.98852594 511.46178219 797.98852594s321.75376875-144.04276125 321.75376875-321.75376875C833.21555094 298.52260968999997 537.99180406-31.93044186999998 511.46178219-31.93044186999998L511.46178219-31.93044186999998zM511.46178219 756.4705125C356.69001875 756.4705125 231.22602688 630.98941687 231.22602688 476.23475719c0-154.79456906 272.39169-466.6517475 280.23575531-466.6517475 3.61244344 0 280.24031625 311.85717844 280.24031625 466.6517475C791.70209844 630.98941687 666.2381075 756.4705125 511.46178219 756.4705125L511.46178219 756.4705125zM511.46178219 362.06307281c-63.04101469 0-114.17168531 51.12610875-114.17168532 114.17168532 0 63.04101469 51.13067063 114.17168531 114.17168532 114.17168531 63.04557563 0 114.17168531-51.13067063 114.17168531-114.17168531C625.6334675 413.18918156 574.50735875 362.06307281 511.46178219 362.06307281L511.46178219 362.06307281zM511.46178219 548.88843c-40.12457719 0-72.65367188-32.54734031-72.65367188-72.65367188 0-40.14624281 32.52909562-72.65367188 72.65367188-72.65367187 40.12799813 0 72.65367188 32.50743 72.65367187 72.65367188C584.11545406 516.34108969 551.58978031 548.88843 511.46178219 548.88843L511.46178219 548.88843zM511.46178219 548.88843"  horiz-adv-x="1024" />

    
    <glyph glyph-name="icon_reply" unicode="&#58890;" d="M437.79387484 532.31542969L437.79387484 705.35009766 131.94273958 441.02728271C111.30217562 423.17999268 111.37633333 394.20904541 131.96745882 376.41119385L437.79387484 112.08837890999996 437.79387484 285.12304687000005C610.82854281 285.12304687000005 771.50359164 248.04418944999998 907.45940218 62.64990234000004 845.66130647 408.71923828 586.10930453 532.31542969 437.79387484 532.31542969"  horiz-adv-x="1025" />

    
    <glyph glyph-name="keshi_m" unicode="&#58980;" d="M724.11999969 687.60400031V734.34799969a25.65199969 25.65199969 0 0 1-51.30399938 0v-46.74399938a4.00000031 4.00000031 0 0 0-4.00000031-4.00000031H355.184a4.00000031 4.00000031 0 0 0-4.00000031 4.00000031V734.34799969a25.65199969 25.65199969 0 1 1-51.30399938 0v-46.74399938a4.00000031 4.00000031 0 0 0-4.00000031-4.00000031H171.99999969c-26.508 0-48-21.48799969-48-48V55.99999968999998c0-26.508 21.492-48 48-48h680.00000062c26.508 0 48 21.492 48 48V635.604c0 26.51200031-21.492 48-48 48h-123.88000031a4.00000031 4.00000031 0 0 0-4.00000031 4.00000031zM831.99999969 60H192.00000031a16.00000031 16.00000031 0 0 0-16.00000031 16.00000031V616.00000031a16.00000031 16.00000031 0 0 0 16.00000031 15.99999938h108.30399938v-54.912a25.608 25.608 0 1 1 51.216 0V631.99999969h320.87200031v-54.912a25.608 25.608 0 1 1 51.216 0V631.99999969H831.99999969a16.00000031 16.00000031 0 0 0 16.00000031-15.99999938v-540a16.00000031 16.00000031 0 0 0-16.00000031-16.00000031zM468.00000031 508.00000031m24 0l0 0q24 0 24-24l0-192q0-24-24-24l0 0q-24 0-24 24l0 192q0 24 24 24ZM660.00000031 316.00000031m0-24l0 0q0-24-24-24l-144 0q-24 0-24 24l0 0q0 24 24 24l144 0q24 0 24-24Z"  horiz-adv-x="1024" />

    
    <glyph glyph-name="Opinion" unicode="&#58899;" d="M806.49446356 33.21142578000001H218.56652397a52.42862522 52.42862522 0 0 0-51.51945887 53.03473708V697.05480273a52.42862522 52.42862522 0 0 0 51.51945888 53.03473708h451.85595732a22.72917304 22.72917304 0 0 0 0-45.45834607H218.56652397a7.12180784 7.12180784 0 0 1-6.06111279-7.57639101v-610.80863987a7.12180784 7.12180784 0 0 1 6.0611128-7.57639102h587.92793958a7.12180784 7.12180784 0 0 1 6.06111282 7.57639102V574.01421314a22.72917304 22.72917304 0 0 0 45.45834535-1e-8v-487.76805027a52.42862522 52.42862522 0 0 0-51.51945817-53.03473708zM540.26008459 449.00376217H325.54516448a22.72917304 22.72917304 0 0 0 0 45.45834607h214.7149201a22.72917304 22.72917304 0 1 0 1e-8-45.45834607zM693.00012637 306.87066781H325.54516448a22.72917304 22.72917304 0 0 0 0 45.45834606h367.45496189a22.72917304 22.72917304 0 0 0 0-45.45834606zM609.05371482 464.15654419a22.72917304 22.72917304 0 0 0-16.06194909 38.79112213L858.16544969 768.12135026a22.72917304 22.72917304 0 0 0 32.12389746-32.12389817l-265.17368396-265.17368395a22.72917304 22.72917304 0 0 0-16.06194837-6.66722395z"  horiz-adv-x="1024" />

    
    <glyph glyph-name="kecheng" unicode="&#58891;" d="M512 183.41162109000004a24.70605469 24.70605469 0 0 0-11.56201172 2.43896485l-234.984375 98.62646484a30.32226563 30.32226563 0 0 0-18.87890625 28.0546875v396.82617188a30.92871094 30.92871094 0 0 0 13.39453125 25.56298828 30.00585938 30.00585938 0 0 0 28.60839844 2.43896484l129.05419922-54.18457031a30.32226563 30.32226563 0 0 0-23.13720703-56.00390625l-87.01171875 36.53173828v-330.56542969l174.10253906-73.05029297v350.68359375a30.32226563 30.32226563 0 0 0 18.86572265 28.00195313l234.984375 98.62646484a31.74609375 31.74609375 0 0 0 28.60839844-2.43896484 30.15087891 30.15087891 0 0 0 13.39453125-25.56298828v-396.86572266a30.32226563 30.32226563 0 0 0-18.86572265-28.00195312l-128.44775391-53.578125a30.32226563 30.32226563 0 0 0-23.13720703 56.00390625l109.58203125 46.26123046v330.51269532l-174.12890625-73.02392578v-376.22021485a30.92871094 30.92871094 0 0 0-13.39453125-25.56298828 28.4765625 28.4765625 0 0 0-17.04638672-5.51074219zM512 28.04296875a32.95898438 32.95898438 0 0 0-10.62597656 1.79296875L135.38427734 171.66503906000003A29.97949219 29.97949219 0 0 0 116.4921875 199.79882812000005V555.28125a29.51806641 29.51806641 0 1 0 59.03613281 0v-334.53369141L512 90.22998046999999l336.47167969 130.51757812v310.60546875a29.51806641 29.51806641 0 1 0 59.03613281 0v-331.54101562a30.59912109 30.59912109 0 0 0-18.89208984-28.13378906L522.62597656 29.84912109000004A28.23925781 28.23925781 0 0 0 512 28.04296875z"  horiz-adv-x="1024" />

    
    <glyph glyph-name="laoshi" unicode="&#58970;" d="M904 274.9H770.3c-0.1 0.1-0.1 0.2-0.2 0.3l-144 224.2c-1.7 3-3.6 5.9-5.6 8.7-0.4 0.7-0.9 1.3-1.4 2-18 24-45.7 39.4-76.8 39.4h-63.8c-28.2 0-53.6-12.7-71.5-32.9-1.9-1.5-3.5-3.4-4.9-5.5l-2.3-3.6c-1.6-2.3-3.2-4.7-4.6-7.2l-142.6-222c-0.7-1.1-1.3-2.2-1.8-3.4h-130c-13.3 0-24-10.7-24-24s10.7-24 24-24h44.9v-217.6c0-13.3 10.7-24 24-24h645.5c13.3 0 24 10.7 24 24V226.9H904c13.3 0 24 10.7 24 24s-10.7 24-24 24z m-190.8 0h-72.8V388.2l72.8-113.3zM542.3 501.4c15.3 0 29.1-7.8 38.3-19.9l4.7-7.4c4.6-8.5 7.2-18.4 7.2-29v-170.2H428.3V445.2c0 10.8 2.7 20.8 7.4 29.4l4.2 6.6c9.2 12.4 23.1 20.3 38.5 20.3h63.9z m-162-113.1v-113.4h-72.8l72.8 113.4z m430.8-355H213.6V226.9h597.5v-193.6zM511.4 558.6c62.5 0 113.3 50.8 113.3 113.3s-50.8 113.3-113.3 113.3S398 734.4 398 671.9s50.9-113.3 113.4-113.3z m0 178.6c36 0 65.3-29.3 65.3-65.3s-29.3-65.3-65.3-65.3-65.3 29.3-65.3 65.3 29.2 65.3 65.3 65.3z"  horiz-adv-x="1024" />

    
    <glyph glyph-name="fenxiang" unicode="&#59301;" d="M836.4032 326.8608c14.813867 0 26.8288-12.014933 26.8288-26.8288v-139.912533a145.408 145.408 0 0 0-145.237333-145.2032H281.770667A145.408 145.408 0 0 0 136.533333 160.085333V596.343467a145.408 145.408 0 0 0 145.237334 145.237333h137.8304a26.8288 26.8288 0 0 0 0-53.623467H281.770667A91.682133 91.682133 0 0 1 190.122667 596.3776v-436.224a91.682133 91.682133 0 0 1 91.613866-91.613867h436.224a91.682133 91.682133 0 0 1 91.579734 91.579734V300.032c0 14.813867 12.014933 26.8288 26.8288 26.8288zM629.8624 676.4544a26.8288 26.8288 0 0 0 0 53.623467h174.1824c14.813867 0 26.8288-12.014933 26.8288-26.8288v-159.3344a26.8288 26.8288 0 0 0-53.623467 0v105.472L443.392 275.012267a26.692267 26.692267 0 0 0-37.853867-2.184534 26.794667 26.794667 0 0 0-2.1504 37.888l326.144 365.738667h-99.669333z"  horiz-adv-x="1024" />

    
    <glyph glyph-name="guanbi" unicode="&#58889;" d="M570.640625 374.296875L879.875 683.53125c15.609375 15.609375 15.609375 41.34375 0 56.953125l-1.6875 1.6875c-15.609375 15.609375-41.34375 15.609375-56.953125 0L512 432.515625 202.765625 742.171875c-15.609375 15.609375-41.34375 15.609375-56.953125 0l-1.6875-1.6875c-16.03125-15.609375-16.03125-41.34375 0-56.953125l309.234375-309.234375L144.125 65.0625c-15.609375-15.609375-15.609375-41.34375 0-56.953125l1.6875-1.6875c15.609375-15.609375 41.34375-15.609375 56.953125 0L512 315.65625 821.234375 6.421875c15.609375-15.609375 41.34375-15.609375 56.953125 0l1.6875 1.6875c15.609375 15.609375 15.609375 41.34375 0 56.953125L570.640625 374.296875z"  horiz-adv-x="1024" />

    
    <glyph glyph-name="xiepinglun" unicode="&#58897;" d="M823.89570313 705.16992188c-43.54541016 44.84443359-101.03291016 70.56298828-157.72324219 70.56298828-45.58007813 0-87.10488281-16.91279297-116.92705078-47.62353516L149.63134766 316.58085938a33.13300781 33.13300781 0 0 1-9.32958985-21.57714844L128.03486328 25.557421869999985a33.13476563 33.13476563 0 0 1 34.69746094-34.60341796l261.64951172 12.63251953a33.14179687 33.14179687 0 0 1 22.17304687 10.0133789l399.61494141 411.52763672c68.83330078 70.88554688 58.84013672 196.51201172-22.27412109 280.04414063zM408.12294922 69.14853516000005L195.89082031 58.901367189999974l10.03886719 220.53164062 45.94658203 47.31679688L455.07324219 117.49804687000005l-46.94941406-48.34863281zM798.62890625 471.29296875L501.25976562 165.06005859000004 298.06542969 374.31357421999996 596.78808594 681.94394531c22.08691406 22.74609375 49.921875 27.5203125 69.38349609 27.5203125 38.8828125 0 79.04267578-18.39199219 110.18144531-50.45976562 27.93779297-28.77099609 45.25664063-64.8984375 48.76435547-101.728125 3.28359375-34.47509766-6.12421875-65.0109375-26.48935547-85.98339844z"  horiz-adv-x="1024" />

    
    <glyph glyph-name="shangsanjiaoxing" unicode="&#58947;" d="M325.456896-50.27968M882.05824-50.27968M236.027904-65.161472M960.132096-65.161472M64.134144-33.290496M131.974144 163.247872c-30.418944-30.430208-6.474752-84.301824 34.917376-84.301824L858.258432 78.946048c42.899456 0 65.325056 53.85216 34.916352 84.301824L547.487744 509.430528c-19.930112 19.974144-49.374208 19.95264-69.327872 0L131.974144 163.247872zM960.51712-33.290496"  horiz-adv-x="1024" />

    
    <glyph glyph-name="xiasanjiaoxing" unicode="&#58946;" d="M325.456896-50.27968M882.05824-50.27968M236.027904-65.161472M960.132096-65.161472M63.683584 23.262976M958.46912 23.262976M64.77824-46.791936M163.396608 522.831616c-40.577024 0-66.526208-54.183936-35.44064-85.25824L477.217792 88.295168c20.031488-20.031488 49.82272-20.031488 69.853184 0l349.274112 349.278208c30.30528 30.294016 6.677504 85.25824-34.927616 85.25824L163.396608 522.831616zM959.522816-46.791936"  horiz-adv-x="1024" />

    
    <glyph glyph-name="jia" unicode="&#58913;" d="M544 768 480 768 480 416 128 416 128 352 480 352 480 0 544 0 544 352 895.936 352 895.936 416 544 416Z"  horiz-adv-x="1024" />

    
    <glyph glyph-name="shanchu" unicode="&#58979;" d="M513.75781223 113.29687526999999c10.546875 0 17.57812473 7.03124973 17.57812554 17.57812473v316.40625c0 10.546875-7.03124973 17.57812473-17.57812554 17.57812473s-17.57812473-7.03124973-17.57812473-17.57812473v-316.40625c0-8.78906277 7.03124973-17.57812473 17.57812473-17.57812473zM654.3828125 113.29687526999999c10.546875 0 17.57812473 7.03124973 17.57812473 17.57812473v316.40625c0 10.546875-7.03124973 17.57812473-17.57812473 17.57812473s-17.57812473-7.03124973-17.57812473-17.57812473v-316.40625c0-8.78906277 7.03124973-17.57812473 17.57812473-17.57812473zM373.13281277 113.29687526999999c10.546875 0 17.57812473 7.03124973 17.57812473 17.57812473v316.40625c0 10.546875-7.03124973 17.57812473-17.57812473 17.57812473s-17.57812473-7.03124973-17.57812554-17.57812473v-316.40625c0-8.78906277 7.03124973-17.57812473 17.57812554-17.57812473zM863.56250027 682.82812527h-174.0234375V746.10937527c0 19.33593777-17.57812473 42.1875-36.9140625 42.1875H371.37499973c-19.33593777 0-33.39843723-21.09375-33.39843723-42.1875V682.82812527H160.43749973c-10.546875 0-17.57812473-7.03124973-17.57812473-17.57812554s7.03124973-17.57812473 17.57812473-17.57812473h54.49218804v-622.265625C214.92968777-2.718749730000013 236.02343777-20.296875269999987 265.90624973-20.296875269999987h492.18750054c29.88281277 0 54.49218723 17.57812473 54.49218723 45.70312527V647.671875H863.56250027c10.546875 0 17.57812473 7.03124973 17.57812473 17.57812473s-7.03124973 17.57812473-17.57812473 17.57812554zM373.13281277 728.53124973c0 10.546875 5.2734375 24.60937527 15.8203125 24.60937527h246.09374946c10.546875 0 19.33593777-14.06250027 19.33593777-24.60937527V682.82812527h-281.24999973V728.53124973z m404.29687446-703.12499973c0-10.546875-8.78906277-10.546875-19.33593696-10.546875H265.90624973c-10.546875 0-15.8203125 1.75781223-15.8203125 10.546875V647.671875h527.34375v-622.265625z"  horiz-adv-x="1024" />

    
    <glyph glyph-name="zanwu" unicode="&#59148;" d="M512 779.5078125C292.94951906 779.5078125 116.4921875 603.0504809399999 116.4921875 384s176.45733156-395.5078125 395.5078125-395.5078125 395.5078125 176.45733156 395.5078125 395.5078125S731.05048094 779.5078125 512 779.5078125z m0-45.63551677c79.1015625 0 152.11838948-27.38131022 212.96574543-73.01682698L235.14453125 171.03425457000003c-45.63551677 57.80498781-73.01682698 133.86418293-73.01682698 212.96574543C162.12770427 575.66917073 320.33082927 733.87229573 512 733.87229573z m0-699.74459146c-79.1015625 0-152.11838948 27.38131022-212.96574543 73.01682698L788.85546875 596.96574543c45.63551677-57.80498781 73.01682698-133.86418293 73.01682698-212.96574543 0-191.66917073-158.203125-349.87229573-349.87229573-349.87229573z"  horiz-adv-x="1024" />

    
    <glyph glyph-name="hua" unicode="&#58924;" d="M236.090453 34.552894a124.586667 270.08 45.001 1 1 176.189078 176.195229 124.586667 270.08 45.001 1 1-176.189078-176.195229ZM517.212926-68.328224a270.08 124.586667 45.001 1 1 381.944132 381.957465 270.08 124.586667 45.001 1 1-381.944132-381.957465ZM516.266667 724.266667m-117.333334 0a117.333333 117.333333 0 1 1 234.666667 0 117.333333 117.333333 0 1 1-234.666667 0ZM516.266667 309.76m-117.333334 0a117.333333 117.333333 0 1 1 234.666667 0 117.333333 117.333333 0 1 1-234.666667 0ZM695.68 413.226667m-117.333333 0a117.333333 117.333333 0 1 1 234.666666 0 117.333333 117.333333 0 1 1-234.666666 0ZM336.64 620.586667m-117.333333 0a117.333333 117.333333 0 1 1 234.666666 0 117.333333 117.333333 0 1 1-234.666666 0ZM695.68 620.586667m-117.333333 0a117.333333 117.333333 0 1 1 234.666666 0 117.333333 117.333333 0 1 1-234.666666 0ZM336.64 413.226667m-117.333333 0a117.333333 117.333333 0 1 1 234.666666 0 117.333333 117.333333 0 1 1-234.666666 0ZM516.266667 516.906667m-149.333334 0a149.333333 149.333333 0 1 1 298.666667 0 149.333333 149.333333 0 1 1-298.666667 0Z"  horiz-adv-x="1024" />

    
    <glyph glyph-name="iconfontjiantou6" unicode="&#58934;" d="M349.42632651 779.5078125L309.90224204 739.9847168 309.90224204 739.9847168 665.61900229 384.2758667 309.90224204 28.556140130000017 349.42632651-10.967944330000023 744.66717124 384.2758667Z"  horiz-adv-x="1024" />

    
    <glyph glyph-name="xiaoxixinfengnews2" unicode="&#59432;" d="M875.30666667 707.41333333C856.10666667 718.29333333 834.34666667 725.33333333 810.66666667 725.33333333L234.66666667 725.33333333C210.98666667 725.33333333 189.22666667 718.29333333 170.02666667 707.41333333L522.66666667 354.77333333 875.30666667 707.41333333zM920.74666667 661.9733333300001L546.98666667 288.21333332999995C540.58666667 281.81333333 531.62666667 278.61333333000005 522.66666667 279.25333333000003 513.70666667 278.61333333000005 504.74666667 281.81333333 498.34666667 288.21333332999995L124.58666667 661.9733333300001C113.70666667 642.77333333 106.66666667 621.01333333 106.66666667 597.33333333l0-448c0-70.4 57.6-128 128-128l576 0c70.4 0 128 57.6 128 128L938.66666667 597.33333333C938.66666667 621.01333333 931.62666667 642.77333333 920.74666667 661.9733333300001z"  horiz-adv-x="1024" />

    
    <glyph glyph-name="wode" unicode="&#58936;" d="M511.97991067 781.4866073000001c-221.90625 0-401.7857146-179.83928595-401.7857146-401.76562528 0-221.94642865 179.8794646-401.80580393 401.7857146-401.80580392 221.92633933 0 401.82589325 179.85937527 401.82589325 401.80580392C913.80580393 601.6272320200001 733.90625 781.4866073000001 511.97991067 781.4866073000001L511.97991067 781.4866073000001zM511.97991067 748.01785703L511.97991067 748.01785703c203.0825896 0 368.31696433-165.23437473 368.31696433-368.29687501 0-89.33705337-32.02232136-171.38169663-85.1383927-235.20535675-36.72321433 15.3482146-123.40848174 45.44196405-177.04687473 61.2522323-4.58035702 1.44642893-5.30357107 1.6875-5.30357107 20.75223231 0 15.6897323 6.44866094 31.54017837 12.77678595 44.91964324 6.8303573 14.6049104 14.9263396 39.0736604 17.85937528 61.05133905 8.13616095 9.46205393 19.22544608 28.08482108 26.35714324 63.60267837 6.26785702 31.35937527 3.35491067 42.72991094-0.80357134 53.4174104-0.421875 1.14508905-0.86383933 2.25000027-1.22544636 3.33482136-1.56696405 7.35267893 0.5825896 45.50223202 5.96651797 75.07366067 3.69642837 20.3303573-0.94419663 63.50223175-28.90848174 99.20089298-17.65848202 22.60044608-51.44866067 50.30357163-113.14285731 54.16071459l-33.85044661-0.04017864c-60.64955337-3.81696433-94.43973202-31.52008906-112.09821405-54.12053595-27.98437527-35.67857108-32.60491095-78.87053567-28.90848176-99.18080365 5.42410703-29.6116073 7.5133927-67.74107107 5.9866073-74.9330354-0.3415177-1.24553567-0.7633927-2.35044608-1.24553567-3.49553595-4.11830337-10.68750027-7.07142837-22.07812527-0.78348203-53.41741041 7.11160703-35.49776798 18.16071433-54.14062527 26.37723176-63.60267837 2.8727677-21.97767865 10.98883933-46.46651797 17.81919662-61.05133905 5.02232136-10.6272323 7.37276826-25.1517854 7.37276824-45.66294662 0-18.984375-0.70312473-19.26562473-5.00223202-20.5915177-55.50669608-16.35267837-143.79910702-48.29464325-176.74553567-62.73883906-54.14062527 64.14508933-86.90625 146.93303595-86.90625 237.29464326C143.66294635 582.7834823000001 308.89732107 748.01785703 511.97991067 748.01785703L511.97991067 748.01785703zM254.85714325 116.3705354L254.85714325 116.3705354c37.68750027 15.38839325 112.86160675 42.1875 162.22098175 56.77232107 28.72767864 9.06026826 28.72767864 33.22767837 28.72767865 52.61383906 0 16.13169663-1.12499973 39.89732108-10.52678567 59.94642865-6.46875027 13.78124973-13.86160702 37.30580392-15.48883905 55.78794662-0.36160702 4.31919663-2.35044608 8.2767854-5.6450896 11.10937528-4.74107163 4.19866067-14.40401798 19.38616067-20.53124973 50.04241039-4.88169607 24.28794608-2.81249973 29.6116073-0.82366067 34.73437528 0.86383933 2.1897323 1.6875 4.33928595 2.33035674 6.79017865 3.99776826 14.6852677-0.44196433 62.97991095-5.34374972 89.75892837-2.109375 11.63169607 0.54241095 44.67857135 22.33928568 72.58258933 19.50669663 24.95089298 49.05803595 38.85267864 86.76562473 41.2633927l31.74107162 0.04017865c38.71205337-2.4508927 68.2633927-16.33258906 87.81026797-41.30357135 21.7767854-27.9241073 24.44866067-60.95089326 22.29910703-72.58258933-4.84151826-26.77901825-9.34151798-75.05357135-5.32366041-89.75892837 0.70312473-2.4508927 1.46651825-4.60044636 2.31026826-6.79017865 2.00892837-5.1428573 4.0580354-10.4665177-0.78348203-34.73437528-6.14732108-30.6361604-15.83035674-45.84374973-20.55133905-50.04241039-3.25446406-2.83258906-5.26339325-6.79017864-5.64508959-11.10937528-1.6071427-18.4821427-8.97991094-42.0267854-15.48883906-55.78794662-7.41294607-15.7700896-15.9508927-36.76339298-15.95089271-59.20312528 0-19.46651797 0-43.63392892 28.98883906-52.77455364 47.27008933-13.921875 122.78571433-39.89732108 162.6830354-55.6071427-66.59598202-65.95312527-158.1227677-106.75446433-259.01116068-106.75446433C412.03571433 11.363839050000024 321.29241067 51.462053370000035 254.85714325 116.3705354z"  horiz-adv-x="1024" />

    
    <glyph glyph-name="yuyuehuodong" unicode="&#58912;" d="M914.285714 475.428571H109.714286a18.285714 18.285714 0 0 0 0 36.571429h804.571428a18.285714 18.285714 0 0 0 0-36.571429zM329.142857 621.714286a18.285714 18.285714 0 0 0-18.285714 18.285714V786.285714a18.285714 18.285714 0 0 0 36.571428 0v-146.285714a18.285714 18.285714 0 0 0-18.285714-18.285714zM694.857143 621.714286a18.285714 18.285714 0 0 0-18.285714 18.285714V786.285714a18.285714 18.285714 0 0 0 36.571428 0v-146.285714a18.285714 18.285714 0 0 0-18.285714-18.285714zM512-36.571429H109.714286a18.285714 18.285714 0 0 0-18.285715 18.285715V713.142857a18.285714 18.285714 0 0 0 18.285715 18.285714h804.571428a18.285714 18.285714 0 0 0 18.285715-18.285714v-329.142857a18.285714 18.285714 0 0 0-36.571429 0V694.857143h-768v-694.857143H512a18.285714 18.285714 0 0 0 0-36.571429zM694.857143 0a17.188571 17.188571 0 0 0-12.8 5.485714l-73.142857 73.142857a17.92 17.92 0 0 0 25.6 25.6L694.857143 44.251429l170.057143 169.691428a17.92 17.92 0 0 0 25.6-25.6l-182.857143-182.857143a17.188571 17.188571 0 0 0-12.8-5.485714z"  horiz-adv-x="1024" />

    
    <glyph glyph-name="wodedangxuan" unicode="&#58888;" d="M882.56-42.24000000000001H139.52c-15.36 0-30.72 7.68-40.32 19.2-9.6 13.44-13.44 28.8-9.6 44.16 38.4 195.84 197.76 341.76 389.76 357.12 64.32 0 133.92-8.16 203.52-36.48 20.16-8.16 26.88-13.44 38.4-19.2 111.36-63.36 188.16-172.8 213.12-301.44 3.84-15.36 0-30.72-11.52-44.16-9.6-11.52-24.96-19.2-40.32-19.2zM140.48-11.039999999999964c-6.24 0-12 2.4-15.36 6.72-0.48 0.48-0.48 0.96-0.96 1.44-4.8 4.8-5.28 12.96-4.32 17.76 35.52 182.4 184.8 319.2 363.36 332.16h14.4c85.92 0 168.48-26.88 208.8-52.32C812 231.36 882.56 132 904.64 14.879999999999995c0.96-6.72-0.48-12.96-5.28-19.2-3.36-4.32-9.12-6.72-15.36-6.72H140.48zM497.6 335.52c83.52 0 163.68-25.92 202.56-50.4h0.48c102.72-60.96 170.88-157.44 192-271.68 0.48-2.4 0.48-5.76-3.36-10.08-0.48-0.96-2.88-1.92-5.76-1.92H140.48c-2.88 0-5.28 0.96-5.76 1.92-0.48 0.96-1.44 1.92-2.4 2.4-0.96 0.96-1.92 3.84-0.96 7.2 34.56 177.12 179.04 309.6 352.32 322.56 4.32-0.48 9.12 0 13.92 0m0 24c-4.8 0-10.08 0-14.88-0.48C298.4 345.6 144.8 205.44000000000005 108.32 17.279999999999973c-1.92-9.6 0-21.12 7.68-28.8 5.76-7.68 15.36-11.52 24.96-11.52H884c9.6 0 19.2 3.84 24.96 11.52 5.76 7.68 9.6 17.28 7.68 28.8-23.04 122.88-96 223.68-203.52 288-40.8 25.44-124.32 54.24-215.52 54.24zM512 360.96000000000004c-120.96 0-220.8 99.84-220.8 220.8S391.04 802.56 512 802.56s220.8-99.84 220.8-220.8S632.96 360.96000000000004 512 360.96000000000004zM512 392.16c-104.64 0-189.6 84.96-189.6 189.6S407.36 771.36 512 771.36s189.6-84.96 189.6-189.6-84.96-189.6-189.6-189.6zM512 759.36c97.92 0 177.6-79.68 177.6-177.6S609.92 404.16 512 404.16s-177.6 79.68-177.6 177.6 79.68 177.6 177.6 177.6m0 24c-111.36 0-201.6-90.24-201.6-201.6s90.24-201.6 201.6-201.6 201.6 90.24 201.6 201.6S623.36 783.36 512 783.36z"  horiz-adv-x="1024" />

    


  </font>
</defs>
</svg>
